<svg width="400" height="402" viewBox="0 0 400 402" fill="none" xmlns="http://www.w3.org/2000/svg">
<ellipse cx="200" cy="201" rx="200" ry="201" fill="#FF5C00"/>
<path d="M400 201C400 240.754 388.27 279.615 366.294 312.67C344.318 345.724 313.082 371.487 276.537 386.7C239.991 401.913 199.778 405.893 160.982 398.138C122.186 390.382 86.5491 371.239 58.5786 343.128C30.6081 315.018 11.56 279.203 3.84294 240.213C-3.8741 201.223 0.0865672 160.809 15.2241 124.081C30.3616 87.3527 55.9961 55.9608 88.886 33.8746C121.776 11.7884 160.444 -4.74062e-07 200 0L200 201L400 201Z" fill="#2BBD28"/>
<ellipse cx="200" cy="200.5" rx="99" ry="99.5" fill="white"/>
</svg>
